<?xml version="1.0" encoding="UTF-8" standalone="no"?>
<!-- Created with Inkscape (http://www.inkscape.org/) -->

<svg
   width="373.11694mm"
   height="230.14677mm"
   viewBox="0 0 373.11694 230.14677"
   version="1.1"
   id="svg5"
   xml:space="preserve"
   xmlns="http://www.w3.org/2000/svg"
   xmlns:svg="http://www.w3.org/2000/svg"><defs
     id="defs2" /><g
     id="layer2"
     transform="translate(-26.561688,-71.310118)"><path
       style="fill:#3a4953;fill-opacity:1;stroke-width:0.264583"
       d="M 33.443182,71.310119 26.561688,99.496752 62.327922,99.672078 34.275974,206.26948 H 71.53566 l 28.57473,-107.21104 40.76299,0.262988 6.92532,-27.967479 h -7.4513 l -5.17208,19.4204 L 94.017856,90.730519 64.782466,198.2922 45.146102,198.46753 73.811689,90.686686 36.905845,90.599025 41.63961,71.310118 Z"
       id="path477" /><path
       d="M 0,0 H 0.77 C 1.716,0 2.245,0.549 2.245,1.496 V 13.84 H 5.259 V 2.354 c 0,-3.147 -1.122,-4.885 -4.401,-4.885 H 0.374 0 Z"
       style="fill:#b01419;fill-opacity:1;fill-rule:nonzero;stroke:none"
       id="path22"
       transform="matrix(1.4278598,0,0,-1.5960147,158.90577,235.0041)" /><path
       d="m 94.693,55.014 h 2.729 V 43.418 h -2.729 z m 2.883,3.125 c 0,-0.815 -0.638,-1.254 -1.518,-1.254 -0.858,0 -1.518,0.439 -1.518,1.254 v 0.484 c 0,0.836 0.66,1.275 1.518,1.275 0.88,0 1.518,-0.439 1.518,-1.275 z"
       style="fill:#b01419;fill-opacity:1;fill-rule:nonzero;stroke:none"
       id="path40"
       transform="matrix(1.4278598,0,0,-1.5960147,108.51032,308.3397)" /><path
       d="m 0,0 -1.849,1.035 c -0.484,0.264 -1.011,0.44 -1.628,0.44 -1.1,0 -1.826,-0.748 -1.826,-1.893 v -3.301 c 0,-1.142 0.726,-1.89 1.826,-1.89 0.617,0 1.144,0.175 1.628,0.461 L 0,-4.137 Z M 0,-11.926 V -6.6 l -1.32,-0.726 c -0.903,-0.485 -1.739,-0.682 -2.597,-0.682 -2.398,0 -3.982,1.606 -3.982,3.959 v 3.895 c 0,2.355 1.628,4.027 4.026,4.027 0.814,0 1.65,-0.197 2.553,-0.682 L 0.022,2.465 v 1.254 h 2.596 v -15.645 z"
       style="fill:#b01419;fill-opacity:1;fill-rule:nonzero;stroke:none"
       id="path34"
       transform="matrix(1.4278598,0,0,-1.5960147,217.68091,226.47229)" /><path
       d="M 0,0 C 0,1.738 -1.1,2.705 -2.685,2.705 -4.269,2.705 -5.369,1.738 -5.369,0 v -2.002 c 0,-1.717 1.1,-2.707 2.684,-2.707 C -1.1,-4.709 0,-3.74 0,-2.002 Z m 2.552,-2.268 c 0,-2.925 -2.178,-4.73 -5.237,-4.73 -3.058,0 -5.236,1.805 -5.236,4.73 v 2.532 c 0,2.925 2.178,4.752 5.236,4.752 3.059,0 5.237,-1.827 5.237,-4.752 z"
       style="fill:#b01419;fill-opacity:1;fill-rule:nonzero;stroke:none"
       id="path26"
       transform="matrix(1.4278598,0,0,-1.5960147,181.58776,228.26158)" /><path
       d="M 0,0 V 1.342 L -1.232,0.617 c -0.814,-0.506 -1.65,-0.748 -2.575,-0.748 -2.266,0 -3.652,1.518 -3.652,3.762 v 7.965 h 2.684 V 3.961 c 0,-1.012 0.594,-1.693 1.541,-1.693 0.571,0 1.034,0.218 1.518,0.505 l 1.694,0.991 v 7.832 H 2.64 V 0 Z"
       style="fill:#b01419;fill-opacity:1;fill-rule:nonzero;stroke:none"
       id="path38"
       transform="matrix(1.4278598,0,0,-1.5960147,235.93082,239.04393)" /><path
       d="m 0,0 h -3.081 c -1.606,0 -1.98,-0.748 -1.98,-1.518 0,-0.814 0.506,-1.298 1.386,-1.298 0.726,0 1.342,0.22 2.003,0.572 L 0,-1.342 Z m 0,-4.797 v 1.342 l -1.21,-0.66 c -1.079,-0.571 -1.915,-0.836 -3.059,-0.836 -2.068,0 -3.454,1.344 -3.454,3.301 0,2.42 1.892,3.543 4.29,3.543 h 3.455 v 0.681 c 0,1.496 -0.858,2.223 -2.376,2.223 -1.585,0 -2.509,-0.66 -2.509,-2.024 h -2.596 v 0.153 c 0,2.619 2.068,4.094 5.083,4.094 3.168,0 4.994,-1.584 4.994,-4.358 v -7.459 z"
       style="fill:#b01419;fill-opacity:1;fill-rule:nonzero;stroke:none"
       id="path30"
       transform="matrix(1.4278598,0,0,-1.5960147,199.24153,231.38817)" /><path
       d="m 0,0 v 7.877 c 0,0.969 -0.44,1.432 -1.232,1.432 -0.506,0 -0.946,-0.221 -1.387,-0.463 L -4.027,7.988 V 0 h -2.662 v 7.855 c 0,0.969 -0.418,1.43 -1.21,1.43 -0.528,0 -0.946,-0.197 -1.409,-0.439 L -10.693,7.988 V 0 h -2.663 v 11.596 h 2.618 v -1.209 l 1.034,0.615 c 0.859,0.506 1.629,0.705 2.443,0.705 1.276,0 2.266,-0.529 2.75,-1.562 l 1.277,0.769 c 0.923,0.572 1.716,0.793 2.662,0.793 2.024,0 3.234,-1.299 3.234,-3.521 L 2.662,0 Z"
       style="fill:#b01419;fill-opacity:1;fill-rule:nonzero;stroke:none"
       id="path44"
       transform="matrix(1.4278598,0,0,-1.5960147,270.70563,239.04393)" /><path
       d="m 0,0 c 0,1.65 -0.968,2.553 -2.574,2.553 -1.629,0 -2.619,-0.903 -2.619,-2.574 V -0.309 H 0 Z m 2.486,-3.367 c 0,-2.354 -2.024,-3.85 -5.082,-3.85 -2.993,0 -5.127,1.629 -5.127,4.467 V 0 c 0,2.926 2.134,4.752 5.127,4.752 3.014,0 5.104,-1.738 5.104,-4.797 V -2.09 h -7.701 v -0.572 c 0,-1.65 1.101,-2.377 2.619,-2.377 1.496,0 2.508,0.529 2.508,1.783 h 2.552 z"
       style="fill:#b01419;fill-opacity:1;fill-rule:nonzero;stroke:none"
       id="path52"
       transform="matrix(1.4278598,0,0,-1.5960147,315.71875,227.84071)" /><path
       d="M 0,0 V -6.777 H -2.949 V 9.594 H 7.679 V 6.998 H 0 V 2.596 H 7.019 V 0 Z"
       style="fill:#b01419;fill-opacity:1;fill-rule:nonzero;stroke:none"
       id="path48"
       transform="matrix(1.4278598,0,0,-1.5960147,291.71845,228.22726)" /><path
       d="m 0,0 v 7.877 c 0,0.969 -0.44,1.432 -1.232,1.432 -0.506,0 -0.946,-0.221 -1.387,-0.463 L -4.027,7.988 V 0 h -2.662 v 7.855 c 0,0.969 -0.418,1.43 -1.21,1.43 -0.528,0 -0.946,-0.197 -1.409,-0.439 L -10.693,7.988 V 0 h -2.663 v 11.596 h 2.618 v -1.209 l 1.034,0.615 c 0.859,0.506 1.629,0.705 2.443,0.705 1.276,0 2.266,-0.529 2.75,-1.562 l 1.277,0.769 c 0.923,0.572 1.716,0.793 2.662,0.793 2.024,0 3.234,-1.299 3.234,-3.521 L 2.662,0 Z"
       style="fill:#b01419;fill-opacity:1;fill-rule:nonzero;stroke:none"
       id="path90"
       transform="matrix(1.4278598,0,0,-1.5960147,339.34184,270.16622)" /><path
       d="M 0,0 V 11.596 H 2.662 V 9.945 l 0.506,0.506 c 0.858,0.815 1.717,1.233 2.861,1.233 H 6.711 V 8.979 h -0.66 c -1.012,0 -1.673,-0.2 -2.443,-0.793 L 2.707,7.437 V 0 Z"
       style="fill:#b01419;fill-opacity:1;fill-rule:nonzero;stroke:none"
       id="path56"
       transform="matrix(1.4278598,0,0,-1.5960147,322.91031,239.04393)" /><path
       d="m 0,0 h -3.081 c -1.606,0 -1.98,-0.748 -1.98,-1.518 0,-0.814 0.506,-1.298 1.386,-1.298 0.726,0 1.342,0.22 2.003,0.572 L 0,-1.342 Z m 0,-4.797 v 1.342 l -1.21,-0.66 c -1.079,-0.571 -1.915,-0.836 -3.059,-0.836 -2.068,0 -3.454,1.344 -3.454,3.301 0,2.42 1.892,3.543 4.29,3.543 h 3.455 v 0.681 c 0,1.496 -0.858,2.223 -2.376,2.223 -1.585,0 -2.509,-0.66 -2.509,-2.024 h -2.596 v 0.153 c 0,2.619 2.068,4.094 5.083,4.094 3.168,0 4.994,-1.584 4.994,-4.358 v -7.459 z"
       style="fill:#b01419;fill-opacity:1;fill-rule:nonzero;stroke:none"
       id="path74"
       transform="matrix(1.4278598,0,0,-1.5960147,395.25499,231.38817)" /><path
       d="M 0,0 V 11.596 H 2.662 V 9.945 l 0.506,0.506 c 0.858,0.815 1.717,1.233 2.861,1.233 H 6.711 V 8.979 h -0.66 c -1.012,0 -1.673,-0.2 -2.443,-0.793 L 2.707,7.437 V 0 Z"
       style="fill:#b01419;fill-opacity:1;fill-rule:nonzero;stroke:none"
       id="path60"
       transform="matrix(1.4278598,0,0,-1.5960147,334.94118,239.04393)" /><path
       d="m 0,0 c 0,1.65 -0.968,2.553 -2.574,2.553 -1.629,0 -2.619,-0.903 -2.619,-2.574 V -0.309 H 0 Z m 2.486,-3.367 c 0,-2.354 -2.024,-3.85 -5.082,-3.85 -2.993,0 -5.127,1.629 -5.127,4.467 V 0 c 0,2.926 2.134,4.752 5.127,4.752 3.014,0 5.104,-1.738 5.104,-4.797 V -2.09 h -7.701 v -0.572 c 0,-1.65 1.101,-2.377 2.619,-2.377 1.496,0 2.508,0.529 2.508,1.783 h 2.552 z"
       style="fill:#b01419;fill-opacity:1;fill-rule:nonzero;stroke:none"
       id="path64"
       transform="matrix(1.4278598,0,0,-1.5960147,357.65373,227.84071)" /><path
       d="m 179.568,55.014 h 2.729 V 43.418 h -2.729 z m 2.883,3.125 c 0,-0.815 -0.639,-1.254 -1.518,-1.254 -0.858,0 -1.518,0.439 -1.518,1.254 v 0.484 c 0,0.836 0.66,1.275 1.518,1.275 0.879,0 1.518,-0.439 1.518,-1.275 z"
       style="fill:#b01419;fill-opacity:1;fill-rule:nonzero;stroke:none"
       id="path66"
       transform="matrix(1.4278598,0,0,-1.5960147,108.51032,308.3397)" /><path
       d="M 0,0 V 11.596 H 2.663 V 9.945 l 0.505,0.506 c 0.858,0.815 1.717,1.233 2.861,1.233 H 6.711 V 8.979 h -0.66 c -1.012,0 -1.673,-0.2 -2.443,-0.793 L 2.707,7.437 V 0 Z"
       style="fill:#b01419;fill-opacity:1;fill-rule:nonzero;stroke:none"
       id="path70"
       transform="matrix(1.4278598,0,0,-1.5960147,372.82473,239.04393)" /><path
       d="M 0,0 C 0,1.738 -1.1,2.705 -2.685,2.705 -4.269,2.705 -5.369,1.738 -5.369,0 v -2.002 c 0,-1.717 1.1,-2.707 2.684,-2.707 C -1.1,-4.709 0,-3.74 0,-2.002 Z m 2.552,-2.268 c 0,-2.925 -2.178,-4.73 -5.237,-4.73 -3.058,0 -5.236,1.805 -5.236,4.73 v 2.532 c 0,2.925 2.178,4.752 5.236,4.752 3.059,0 5.237,-1.827 5.237,-4.752 z"
       style="fill:#b01419;fill-opacity:1;fill-rule:nonzero;stroke:none"
       id="path82"
       transform="matrix(1.4278598,0,0,-1.5960147,281.2598,259.38387)" /><path
       d="m 0,0 -1.849,1.035 c -0.484,0.264 -1.011,0.44 -1.628,0.44 -1.1,0 -1.826,-0.748 -1.826,-1.893 v -3.301 c 0,-1.166 0.726,-1.914 1.826,-1.914 0.617,0 1.144,0.197 1.628,0.463 L 0,-4.158 Z m 0.022,-7.855 v 1.253 L -1.32,-7.326 c -0.903,-0.506 -1.739,-0.684 -2.597,-0.684 -2.398,0 -3.982,1.608 -3.982,3.961 v 3.895 c 0,2.332 1.628,4.006 4.026,4.006 0.858,0 1.65,-0.178 2.553,-0.684 L 0,2.443 V 8.516 H 2.618 V -7.855 Z"
       style="fill:#b01419;fill-opacity:1;fill-rule:nonzero;stroke:none"
       id="path78"
       transform="matrix(1.4278598,0,0,-1.5960147,262.60067,257.62889)" /><path
       d="m 0,0 -2.553,-7.613 h 5.127 z m 4.291,-13.225 -1.057,3.104 h -6.469 l -1.034,-3.104 h -3.168 l 5.654,16.371 h 3.631 l 5.655,-16.371 z"
       style="fill:#b01419;fill-opacity:1;fill-rule:nonzero;stroke:none"
       id="path86"
       transform="matrix(1.4278598,0,0,-1.5960147,306.86019,249.05956)" /><path
       d="m 0,0 h -3.081 c -1.606,0 -1.98,-0.748 -1.98,-1.518 0,-0.814 0.506,-1.298 1.386,-1.298 0.726,0 1.342,0.22 2.003,0.572 L 0,-1.342 Z m 0,-4.797 v 1.342 l -1.21,-0.66 c -1.079,-0.571 -1.915,-0.836 -3.059,-0.836 -2.068,0 -3.454,1.344 -3.454,3.301 0,2.42 1.892,3.543 4.29,3.543 h 3.455 v 0.681 c 0,1.496 -0.858,2.223 -2.376,2.223 -1.585,0 -2.509,-0.66 -2.509,-2.024 h -2.596 v 0.153 c 0,2.619 2.068,4.094 5.083,4.094 3.168,0 4.994,-1.584 4.994,-4.358 v -7.459 z"
       style="fill:#b01419;fill-opacity:1;fill-rule:nonzero;stroke:none"
       id="path94"
       transform="matrix(1.4278598,0,0,-1.5960147,357.43484,262.51046)" /><path
       style="fill:#b01419;fill-opacity:1;stroke-width:0.264583"
       d="m 154.41721,90.642857 9.59902,0.08766 -6.79383,27.438313 H 116.37175 L 87.784344,224.85849 h -38.86876 l 2.64518,-9.87195 H 79.772726 L 108.23345,108.76969 h 41.14317 z"
       id="path479" /><path
       d="m 0,0 c 0,-10.543 -7.273,-16.059 -18.229,-16.059 -10.871,0 -18.136,5.993 -18.136,16.463 v 10.469 c 0,10.467 7.265,16.547 18.136,16.547 C -7.273,27.42 0,21.824 0,11.273 v -0.72 h -9.348 c 0,5.994 -3.281,8.47 -8.881,8.47 -5.513,0 -8.71,-2.873 -8.71,-8.949 V 1.287 c 0,-6.078 3.197,-8.955 8.71,-8.955 5.6,0 8.881,2.4 8.881,8.391 H 0 Z"
       style="fill:#3a4953;fill-opacity:1;fill-rule:nonzero;stroke:none"
       id="path132"
       transform="matrix(1.4278598,0,0,-1.5960147,399.67864,172.90604)" /><path
       d="m 0,0 c 0,5.998 -3.514,9.275 -9.352,9.275 -5.918,0 -9.509,-3.277 -9.509,-9.353 V -1.117 H 0 Z m 9.031,-12.229 c 0,-8.548 -7.347,-13.982 -18.461,-13.982 -10.867,0 -18.617,5.914 -18.617,16.225 V 0 c 0,10.631 7.75,17.268 18.617,17.268 10.953,0 18.537,-6.319 18.537,-17.426 V -7.592 H -18.861 V -9.67 c 0,-5.996 4,-8.631 9.509,-8.631 5.44,0 9.11,1.92 9.11,6.477 h 9.273 z"
       style="fill:#3a4953;fill-opacity:1;fill-rule:nonzero;stroke:none"
       id="path128"
       transform="matrix(1.4278598,0,0,-1.5960147,322.83364,156.70266)" /><path
       d="m 0,0 c -9.75,0 -16.062,4.875 -16.062,14.463 v 19.422 h -6.387 v 8.228 h 6.387 v 11.43 H -6.15 V 42.113 H 5.514 V 33.885 H -6.15 V 15.021 c 0,-4.949 2.24,-6.632 6.957,-6.632 H 5.76 V 0 Z"
       style="display:inline;fill:#3a4953;fill-opacity:1;fill-rule:nonzero;stroke:none"
       id="path124"
       transform="matrix(1.4278598,0,0,-1.5960147,267.23636,197.38859)" /><path
       d="M 0,0 V 59.459 H 39.49 V 50.027 H 10.637 V 34.846 H 36.451 V 25.414 H 10.637 V 9.512 H 39.643 V 0 Z"
       style="fill:#3a4953;fill-opacity:1;fill-rule:nonzero;stroke:none"
       id="path120"
       transform="matrix(1.4278598,0,0,-1.5960147,171.45252,197.38859)" /><path
       d="M 0,0 1.62,2.189 H 3.93 L 1.995,0 Z m 2.91,-8.971 v 0.916 L 2.07,-8.551 c -0.555,-0.344 -1.125,-0.51 -1.755,-0.51 -1.545,0 -2.49,1.036 -2.49,2.565 v 5.43 h 1.83 V -6.27 c 0,-0.691 0.405,-1.156 1.05,-1.156 0.39,0 0.705,0.151 1.035,0.346 l 1.155,0.674 v 5.34 H 4.71 v -7.905 z"
       style="fill:#3a4953;fill-opacity:1;fill-rule:nonzero;stroke:none"
       id="path116"
       transform="matrix(1.4278598,0,0,-1.5960147,392.7074,286.97114)" /><path
       d="m 0,0 h -2.1 c -1.095,0 -1.35,-0.51 -1.35,-1.033 0,-0.557 0.345,-0.887 0.945,-0.887 0.495,0 0.915,0.15 1.365,0.391 L 0,-0.914 Z m 0,-3.27 v 0.916 l -0.825,-0.451 c -0.735,-0.388 -1.305,-0.57 -2.085,-0.57 -1.41,0 -2.355,0.916 -2.355,2.25 0,1.65 1.29,2.416 2.925,2.416 h 2.355 v 0.465 c 0,1.019 -0.585,1.515 -1.62,1.515 -1.08,0 -1.71,-0.451 -1.71,-1.38 h -1.769 v 0.105 c 0,1.785 1.409,2.789 3.464,2.789 2.16,0 3.405,-1.08 3.405,-2.969 V -3.27 Z"
       style="fill:#3a4953;fill-opacity:1;fill-rule:nonzero;stroke:none"
       id="path112"
       transform="matrix(1.4278598,0,0,-1.5960147,384.54746,296.07034)" /><path
       d="M 0,0 H 0.525 C 1.17,0 1.53,0.375 1.53,1.021 V 9.436 H 3.584 V 1.605 c 0,-2.144 -0.764,-3.33 -2.999,-3.33 H 0.255 0 Z"
       style="fill:#3a4953;fill-opacity:1;fill-rule:nonzero;stroke:none"
       id="path108"
       transform="matrix(1.4278598,0,0,-1.5960147,369.46984,298.53602)" /><path
       d="m 200.556,40.289 h 2.75 V 23.918 h -2.75 z"
       style="fill:#b01419;fill-opacity:1;fill-rule:nonzero;stroke:none"
       id="path104"
       transform="matrix(1.4278598,0,0,-1.5960147,108.51032,308.3397)" /><path
       d="m 0,0 h -3.081 c -1.606,0 -1.98,-0.748 -1.98,-1.518 0,-0.814 0.506,-1.298 1.386,-1.298 0.726,0 1.342,0.22 2.003,0.572 L 0,-1.342 Z m 0,-4.797 v 1.342 l -1.21,-0.66 c -1.079,-0.571 -1.915,-0.836 -3.059,-0.836 -2.068,0 -3.454,1.344 -3.454,3.301 0,2.42 1.892,3.543 4.29,3.543 h 3.455 v 0.681 c 0,1.496 -0.858,2.223 -2.376,2.223 -1.585,0 -2.509,-0.66 -2.509,-2.024 h -2.596 v 0.153 c 0,2.619 2.068,4.094 5.083,4.094 3.168,0 4.994,-1.584 4.994,-4.358 v -7.459 z"
       style="fill:#b01419;fill-opacity:1;fill-rule:nonzero;stroke:none"
       id="path102"
       transform="matrix(1.4278598,0,0,-1.5960147,387.37104,262.51046)" /><path
       d="M 0,0 V 11.596 H 2.662 V 9.945 l 0.506,0.506 c 0.858,0.815 1.717,1.233 2.861,1.233 H 6.711 V 8.979 h -0.66 c -1.012,0 -1.673,-0.2 -2.443,-0.793 L 2.707,7.437 V 0 Z"
       style="fill:#b01419;fill-opacity:1;fill-rule:nonzero;stroke:none"
       id="path98"
       transform="matrix(1.4278598,0,0,-1.5960147,364.94009,270.16622)" /></g></svg>
